<svg width="51" height="51" viewBox="0 0 51 51" fill="none" xmlns="http://www.w3.org/2000/svg">
<path d="M35.3077 1.36878H35.6352C39.5975 1.41629 43.1307 2.32331 45.6605 3.71951C48.2951 5.17349 49.6332 7.02114 49.6332 8.82694C49.6332 10.6328 48.2954 12.4805 45.6612 13.9344C43.0622 15.3689 39.4036 16.2871 35.3077 16.2871C31.2128 16.2871 27.5542 15.3689 24.9549 13.9344C22.3203 12.4804 20.9822 10.6327 20.9822 8.82694C20.9822 7.02112 22.3199 5.17397 24.954 3.72054C27.5531 2.28647 31.2117 1.36878 35.3077 1.36878ZM46.6277 24.0827C47.6363 23.526 48.5466 22.8764 49.3058 22.1459C48.7618 23.4266 47.542 24.6649 45.6614 25.7026C43.0623 27.1366 39.4037 28.0543 35.3077 28.0543C35.0833 28.0543 34.8635 28.0471 34.6391 28.0365C34.5077 27.563 34.34 27.1011 34.1378 26.6546C34.5224 26.6736 34.9124 26.6844 35.3077 26.6844C39.6759 26.6844 43.68 25.7097 46.6277 24.0827ZM46.6263 29.9673C47.6361 29.4099 48.5473 28.7593 49.307 28.0277C48.7636 29.3094 47.5434 30.5488 45.6614 31.5872C43.0623 33.0212 39.4037 33.9389 35.3077 33.9389C35.1891 33.9389 35.0736 33.9363 34.9582 33.932V32.9185C34.9582 32.7951 34.9504 32.6766 34.937 32.5634C35.0604 32.5669 35.1843 32.569 35.3077 32.569C39.6759 32.569 43.6791 31.5943 46.6263 29.9673ZM46.6263 35.8519C47.6361 35.2945 48.5473 34.6439 49.307 33.9123C48.7636 35.194 47.5434 36.4334 45.6614 37.4718C43.0623 38.9059 39.4037 39.8236 35.3077 39.8236C35.1891 39.8236 35.0736 39.8209 34.9582 39.8166V38.8032C34.9582 38.6798 34.9504 38.5613 34.9371 38.448C35.0604 38.4516 35.1843 38.4536 35.3077 38.4536C39.6759 38.4536 43.6791 37.4789 46.6263 35.8519ZM21.3332 16.2997C22.0942 17.0256 23.0054 17.6705 24.0141 18.223C26.9592 19.8358 30.9525 20.7998 35.3077 20.7998C39.6759 20.7998 43.6791 19.825 46.6263 18.1981C47.6361 17.6406 48.5473 16.9901 49.307 16.2584C48.7636 17.5401 47.5434 18.7795 45.6614 19.8179C43.0623 21.252 39.4037 22.1697 35.3077 22.1697C33.1709 22.1697 31.1643 21.895 29.333 21.4427C27.733 20.4353 25.8565 19.6436 23.7887 19.0661C22.5816 18.206 21.7616 17.2639 21.3332 16.2997ZM5.33808 47.2805C3.47019 46.2495 2.25433 45.0204 1.70513 43.7485C2.46868 44.4795 3.38435 45.1287 4.39871 45.6842C7.34379 47.2974 11.3371 48.2613 15.6923 48.2613C20.0605 48.2613 24.0637 47.2866 27.0109 45.6596C28.0208 45.1021 28.9321 44.4515 29.6918 43.7197C29.1486 45.0018 27.9286 46.2417 26.0466 47.2805C23.4478 48.715 19.7892 49.6332 15.6923 49.6332C11.5954 49.6332 7.93686 48.715 5.33808 47.2805ZM5.33808 41.3959C3.47019 40.3649 2.25433 39.1358 1.70513 37.8639C2.46868 38.5949 3.38435 39.244 4.39871 39.7996C7.34379 41.4127 11.3371 42.3767 15.6923 42.3767C20.0605 42.3767 24.0637 41.402 27.0109 39.775C28.0208 39.2175 28.9321 38.5668 29.6918 37.8351C29.1486 39.1172 27.9286 40.3571 26.0466 41.3959C23.4478 42.8304 19.7892 43.7486 15.6923 43.7486C11.5954 43.7486 7.93686 42.8304 5.33808 41.3959ZM1.36682 30.4039C1.36682 28.598 2.70461 26.7503 5.33878 25.2964C7.93785 23.8619 11.5964 22.9437 15.6923 22.9437C19.7872 22.9437 23.4458 23.8619 26.0452 25.2964C28.6797 26.7504 30.0178 28.5981 30.0178 30.4039C30.0178 32.2098 28.68 34.0574 26.0459 35.5113C23.4468 36.9458 19.7882 37.864 15.6923 37.864C11.5974 37.864 7.93883 36.9458 5.33948 35.5113C2.70496 34.0573 1.36682 32.2097 1.36682 30.4039Z" stroke="#500064" stroke-width="2"/>
</svg>
