<?xml version="1.0" encoding="UTF-8"?>
<!DOCTYPE svg PUBLIC "-//W3C//DTD SVG 1.1//EN" "http://www.w3.org/Graphics/SVG/1.1/DTD/svg11.dtd">
<!-- Creator: CorelDRAW 2017 -->
<svg xmlns="http://www.w3.org/2000/svg" xml:space="preserve" width="213.856mm" height="30.511mm" version="1.1" style="shape-rendering:geometricPrecision; text-rendering:geometricPrecision; image-rendering:optimizeQuality; fill-rule:evenodd; clip-rule:evenodd"
viewBox="0 0 21385.56 3051.1"
 xmlns:xlink="http://www.w3.org/1999/xlink">
 <defs>
  <style type="text/css">
   <![CDATA[
    .fil0 {fill:#001D42;fill-rule:nonzero}
   ]]>
  </style>
 </defs>
 <g id="Слой_x0020_1">
  <metadata id="CorelCorpID_0Corel-Layer"/>
  <g id="_1998883203824">
   <path class="fil0" d="M12968.76 2816.24c249.82,162.07 573.81,234.86 867.22,234.86 339.86,0 719.66,-106.29 920.45,-401.46 87.82,-129.1 127.87,-277.19 127.87,-432.66 0,-945.23 -1326.96,-852.5 -1326.96,-1462 0,-273.43 224.02,-376.42 464.88,-376.42 238.73,0 470.85,65.46 685.15,167.39l0 -409.37c-209.98,-97.76 -476.67,-136.58 -703.77,-136.58 -373.51,0 -752.68,151.19 -897.85,519.89 -35.35,89.77 -52.69,185.25 -52.69,281.66 0,906.32 1326.96,817.03 1326.96,1461.98 0,307.06 -298.08,409.02 -558.01,409.02 -244.36,0 -472.68,-72.41 -676.31,-202.65l-176.94 346.34z"/>
   <path class="fil0" d="M-0 3036.62l509.74 0 361.61 -1088.09 570.87 0 -188.7 -509.74 -212.76 0 -456.27 0 -53.47 0 -531.02 1597.83zm2814.58 0l-509.74 0 -1021.15 -2999.6 509.74 0 1021.15 2999.6z"/>
   <path class="fil0" d="M6227.11 37.04l-509.74 0 -531.02 1597.82 509.74 0 531.02 -1597.82zm-2814.58 0l509.74 0 1021.15 2999.59 -509.74 0 -1021.15 -2999.59z"/>
   <polygon class="fil0" points="10714.21,3036.62 11223.95,3036.62 12163.79,3036.62 12163.79,2526.88 11223.95,2526.88 11223.95,37.02 10714.21,37.02 10714.21,2526.88 "/>
   <path class="fil0" d="M7028.43 3036.62l509.74 0 1626.02 0 0 -509.74 -1626.02 0 0 -707.01 1626.02 0 0 -509.74 -1626.02 0 -509.74 0 0 509.74 0 707.01 0 509.74zm0 -2999.6l0 509.74 2135.76 0 0 -509.74 -2135.76 0z"/>
   <path class="fil0" d="M19204.48 37.02l1293.34 0c488.26,0 887.74,399.48 887.74,887.74l0 0c0,271.87 -123.87,516.15 -317.93,679.33 174.22,162.37 283.63,393.49 283.63,648.95l0 783.58 -401.9 0 0 -622.63c0,-257.05 -138.4,-483.32 -344.34,-608.02 -35.17,4.28 -70.93,6.55 -107.2,6.55l-783.61 0 0 1224.1 -509.73 0 0 -1224.1 0 -56.38 0 -390.84 83.34 0 1175.7 0 55.12 0c242.28,0 440.51,-198.22 440.51,-440.51l0 -0.03c0,-242.29 -198.23,-440.51 -440.51,-440.51l-1314.16 0 0 -447.23z"/>
   <path class="fil0" d="M15527.28 3036.62l509.74 0 361.61 -1088.09 570.87 0 -188.7 -509.74 -212.76 0 -456.27 0 -53.47 0 -531.02 1597.83zm2814.58 0l-509.74 0 -1021.15 -2999.6 509.74 0 1021.15 2999.6z"/>
  </g>
 </g>
</svg>
