<svg width="333" height="332" viewBox="0 0 333 332" fill="none" xmlns="http://www.w3.org/2000/svg">
<path fill-rule="evenodd" clip-rule="evenodd" d="M166.501 0C232.139 0 285.352 53.1955 285.352 118.812C285.352 183.781 233.185 236.562 168.442 237.6C208.794 236.571 241.189 203.547 241.189 162.961C241.189 121.724 207.752 88.2982 166.501 88.2982C125.25 88.2982 91.8138 121.724 91.8138 162.961C91.8138 203.547 124.208 236.571 164.561 237.6C99.8171 236.562 47.6503 183.781 47.6503 118.812C47.6503 53.1955 100.863 0 166.505 0L166.501 0ZM103.817 256.664C124.627 256.664 141.495 273.527 141.495 294.33C141.495 315.133 124.627 331.996 103.817 331.996C83.0066 331.996 66.1386 315.133 66.1386 294.33C66.1386 273.527 83.0066 256.664 103.817 256.664ZM103.817 270.603C116.923 270.603 127.552 281.228 127.552 294.33C127.552 307.432 116.923 318.057 103.817 318.057C90.7063 318.057 80.0817 307.432 80.0817 294.33C80.0817 281.228 90.7063 270.603 103.817 270.603ZM37.6781 256.664C47.9785 256.664 57.3108 260.798 64.1122 267.49C61.2448 271.722 59.0378 276.434 57.6349 281.482C53.4097 274.938 46.0505 270.603 37.6781 270.603C24.5676 270.603 13.9431 281.228 13.9431 294.33C13.9431 307.432 24.5676 318.057 37.6781 318.057C46.0505 318.057 53.4097 313.723 57.6349 307.178C59.0378 312.226 61.2448 316.938 64.1122 321.17C57.3108 327.866 47.9785 331.996 37.6781 331.996C16.868 331.996 0 315.133 0 294.33C0 273.527 16.868 256.664 37.6781 256.664ZM317.419 286.124C317.419 290.082 316.303 293.153 314.075 295.339C311.844 297.525 308.587 298.615 304.304 298.615H292.683V273.638H304.304C308.587 273.638 311.844 274.712 314.075 276.865C316.303 279.014 317.419 282.102 317.419 286.129V286.124ZM332.998 331.783L319.178 308.749C323.227 306.702 326.353 303.75 328.552 299.895C330.751 296.04 331.854 291.451 331.854 286.124C331.854 280.802 330.767 276.192 328.597 272.305C326.427 268.413 323.33 265.411 319.31 263.295C315.29 261.179 310.552 260.121 305.096 260.121H278.424V331.783H292.683V311.82H305.096H305.801L317.685 331.783H333.003H332.998ZM200.783 331.791H164.992H151.693V318.496V256.455H164.992V318.496H189.399C192.361 323.593 196.229 328.096 200.783 331.791ZM230.601 256.463C251.411 256.463 268.279 273.326 268.279 294.129C268.279 314.933 251.411 331.795 230.601 331.795C209.791 331.795 192.923 314.933 192.923 294.129C192.923 273.326 209.791 256.463 230.601 256.463ZM230.601 270.402C243.712 270.402 254.336 281.027 254.336 294.129C254.336 307.231 243.712 317.856 230.601 317.856C217.495 317.856 206.866 307.231 206.866 294.129C206.866 281.027 217.491 270.402 230.601 270.402Z" fill="#FEFEFE"/>
</svg>
