<svg width="46" height="48" viewBox="0 0 46 48" fill="none" xmlns="http://www.w3.org/2000/svg">
<path d="M42.9818 24.3239L42.5224 24.931L42.7412 25.6601C42.9012 26.1934 42.9848 26.7593 42.9951 27.3422C42.9925 28.6109 42.5747 29.8299 41.8207 30.8263L41.3613 31.4333L41.5801 32.1625C41.7414 32.7004 41.8227 33.2574 41.8227 33.8271C41.8227 35.1 41.4046 36.3235 40.6482 37.323L40.1889 37.93L40.4076 38.6591C40.569 39.1971 40.6502 39.7541 40.6502 40.3238C40.6502 42.6449 39.2706 44.736 37.1268 45.6503L37.1268 45.6503L37.1184 45.6539C36.845 45.7725 36.5393 45.8359 36.2143 45.8359H10.9629V23.3586L15.7912 5.87787L15.7915 5.87685C16.3935 3.69102 18.4063 2.1584 20.6777 2.15841L20.6833 2.15839C21.3039 2.15608 21.9184 2.28107 22.4889 2.52564C23.0593 2.7702 23.5735 3.12915 23.9997 3.58029L24.0019 3.58265C24.8758 4.5037 25.3226 5.70236 25.2626 6.97646C25.2626 6.97658 25.2626 6.97671 25.2626 6.97683L24.9229 13.9354L24.8461 15.5086H26.4211L40.0035 15.5086L40.0049 15.5086C40.4206 15.5082 40.8288 15.6189 41.1873 15.8292C43.0423 16.9173 44.1562 18.8463 44.1562 20.8281C44.1562 22.101 43.7382 23.3245 42.9818 24.3239ZM1.84375 45.5234V24.9062C1.84375 24.7321 1.98214 24.5937 2.15625 24.5937H4.33789V45.8359H2.15625C1.98214 45.8359 1.84375 45.6975 1.84375 45.5234Z" stroke="#500064" stroke-width="3"/>
</svg>
